<svg id="Layer_1" data-name="Layer 1" xmlns="http://www.w3.org/2000/svg" viewBox="0 0 70.88 35"><defs><style>.cls-1{fill:#ed174b;}.cls-2{fill:#07074e;}</style></defs><title>aildco</title><path class="cls-1" d="M13.12,0H0V8.75H13.12A13.13,13.13,0,1,0,26.25,21.88V35H35V21.88A21.87,21.87,0,0,0,13.12,0ZM17.5,26.25H8.75V17.5H17.5Z"/><rect class="cls-1" x="62.56" y="28.44" width="2.19" height="2.19"/><path class="cls-2" d="M43.75,15v0c0-1.88,1.44-2.77,3.5-2.77a6.16,6.16,0,0,1,2.12.36v-.15c0-1-.63-1.59-1.86-1.59a6.15,6.15,0,0,0-2.4.47l-.62-1.87a7.85,7.85,0,0,1,3.37-.7,3.94,3.94,0,0,1,2.93,1,3.77,3.77,0,0,1,.94,2.77v5H49.35v-.94a3.3,3.3,0,0,1-2.62,1.11A2.68,2.68,0,0,1,43.75,15Zm5.65-.57V14a3.78,3.78,0,0,0-1.57-.33c-1,0-1.7.42-1.7,1.2v0c0,.67.55,1.06,1.34,1.06C48.64,16,49.4,15.37,49.4,14.46Z"/><path class="cls-2" d="M53.41,5.68H56V7.87H53.41Zm.06,3.14h2.47V17.5H53.47Z"/><path class="cls-2" d="M57.81,5.69h2.46V17.51H57.81Z"/><path class="cls-2" d="M61.76,13.18v0c0-2.9,1.89-4.49,3.95-4.49a3.32,3.32,0,0,1,2.7,1.3V5.68h2.47V17.5H68.41V16.25a3.1,3.1,0,0,1-2.7,1.41C63.69,17.66,61.76,16.08,61.76,13.18Zm6.69,0v0a2.13,2.13,0,1,0-4.23,0v0a2.13,2.13,0,1,0,4.23,0Z"/><path class="cls-2" d="M43.75,26.34v0a4.45,4.45,0,0,1,4.55-4.51,4.29,4.29,0,0,1,3.46,1.45l-1.5,1.62a2.55,2.55,0,0,0-2-.95,2.2,2.2,0,0,0-2.1,2.36v0a2.22,2.22,0,0,0,2.2,2.4,2.76,2.76,0,0,0,2-.92l1.44,1.45a4.34,4.34,0,0,1-3.54,1.59A4.44,4.44,0,0,1,43.75,26.34Z"/><path class="cls-2" d="M52.52,26.34v0a4.7,4.7,0,0,1,9.39,0v0a4.7,4.7,0,0,1-9.39,0Zm7,0v0a2.3,2.3,0,0,0-2.28-2.39A2.21,2.21,0,0,0,55,26.27v0a2.31,2.31,0,0,0,2.28,2.4A2.21,2.21,0,0,0,59.48,26.34Z"/></svg>